# Blender 4.5.3 LTS
# www.blender.org
mtllib NES Button.mtl
o Cylinder
v 0.000000 0.008699 -0.723096
v -0.127351 0.269877 -0.640236
v 0.141069 0.008699 -0.709202
v -0.249808 0.269877 -0.603089
v 0.276717 0.008699 -0.668053
v -0.362665 0.269877 -0.542766
v 0.401731 0.008699 -0.601232
v -0.461584 0.269877 -0.461584
v 0.511306 0.008699 -0.511306
v -0.542766 0.269877 -0.362665
v 0.601232 0.008699 -0.401731
v -0.603089 0.269877 -0.249808
v 0.668053 0.008699 -0.276717
v -0.640236 0.269877 -0.127351
v 0.709202 0.008699 -0.141069
v -0.652779 0.269877 -0.000000
v 0.723096 0.008699 0.000000
v -0.640236 0.269877 0.127351
v 0.709202 0.008699 0.141069
v -0.603089 0.269877 0.249808
v 0.668053 0.008699 0.276717
v -0.542766 0.269877 0.362665
v 0.601232 0.008699 0.401731
v -0.461584 0.269877 0.461584
v 0.511306 0.008699 0.511306
v -0.362665 0.269877 0.542766
v 0.401731 0.008699 0.601232
v -0.249808 0.269877 0.603089
v 0.276717 0.008699 0.668053
v -0.127351 0.269877 0.640236
v 0.141069 0.008699 0.709202
v -0.000000 0.269877 0.652779
v 0.000000 0.008699 0.723096
v 0.127351 0.269877 0.640236
v -0.141069 0.008699 0.709202
v 0.249808 0.269877 0.603089
v -0.276717 0.008699 0.668053
v 0.362665 0.269877 0.542766
v -0.401731 0.008699 0.601232
v 0.461584 0.269877 0.461584
v -0.511306 0.008699 0.511306
v 0.542766 0.269877 0.362665
v -0.601232 0.008699 0.401731
v 0.603089 0.269877 0.249808
v -0.668053 0.008699 0.276717
v 0.640236 0.269877 0.127351
v -0.709202 0.008699 0.141069
v 0.652779 0.269877 0.000000
v -0.723096 0.008699 0.000000
v 0.640236 0.269877 -0.127351
v -0.709202 0.008699 -0.141069
v 0.603089 0.269877 -0.249808
v -0.668053 0.008699 -0.276717
v 0.542766 0.269877 -0.362665
v -0.601232 0.008699 -0.401731
v 0.461584 0.269877 -0.461584
v -0.511306 0.008699 -0.511306
v 0.362665 0.269877 -0.542766
v -0.401731 0.008699 -0.601232
v 0.249808 0.269877 -0.603089
v -0.276717 0.008699 -0.668053
v 0.127351 0.269877 -0.640236
v -0.141069 0.008699 -0.709202
v 0.000000 0.269877 -0.652779
v 0.000000 0.294406 -0.652779
v 0.000000 0.280581 -0.723096
v 0.000000 0.294406 -0.723096
v 0.127351 0.294406 -0.640236
v 0.141069 0.280581 -0.709202
v 0.141069 0.294406 -0.709202
v 0.249808 0.294406 -0.603089
v 0.276717 0.280581 -0.668053
v 0.276717 0.294406 -0.668053
v 0.362665 0.294406 -0.542766
v 0.401731 0.280581 -0.601232
v 0.401731 0.294406 -0.601232
v 0.461584 0.294406 -0.461584
v 0.511306 0.280581 -0.511306
v 0.511306 0.294406 -0.511306
v 0.542766 0.294406 -0.362665
v 0.601232 0.280581 -0.401731
v 0.601232 0.294406 -0.401731
v 0.603089 0.294406 -0.249808
v 0.668053 0.280581 -0.276717
v 0.668053 0.294406 -0.276717
v 0.640236 0.294406 -0.127351
v 0.709202 0.280581 -0.141069
v 0.709202 0.294406 -0.141069
v 0.652779 0.294406 0.000000
v 0.723096 0.280581 0.000000
v 0.723096 0.294406 0.000000
v 0.640236 0.294406 0.127351
v 0.709202 0.280581 0.141069
v 0.709202 0.294406 0.141069
v 0.603089 0.294406 0.249808
v 0.668053 0.280581 0.276717
v 0.668053 0.294406 0.276717
v 0.542766 0.294406 0.362665
v 0.601232 0.280581 0.401731
v 0.601232 0.294406 0.401731
v 0.461584 0.294406 0.461584
v 0.511306 0.280581 0.511306
v 0.511306 0.294406 0.511306
v 0.362665 0.294406 0.542766
v 0.401731 0.280581 0.601232
v 0.401731 0.294406 0.601232
v 0.249808 0.294406 0.603089
v 0.276717 0.280581 0.668053
v 0.276717 0.294406 0.668053
v 0.127351 0.294406 0.640236
v 0.141069 0.280581 0.709202
v 0.141069 0.294406 0.709202
v -0.000000 0.294406 0.652779
v 0.000000 0.280581 0.723096
v 0.000000 0.294406 0.723096
v -0.127351 0.294406 0.640236
v -0.141069 0.280581 0.709202
v -0.141069 0.294406 0.709202
v -0.249808 0.294406 0.603089
v -0.276717 0.280581 0.668053
v -0.276717 0.294406 0.668053
v -0.362665 0.294406 0.542766
v -0.401731 0.280581 0.601232
v -0.401731 0.294406 0.601232
v -0.461584 0.294406 0.461584
v -0.511306 0.280581 0.511306
v -0.511306 0.294406 0.511306
v -0.542766 0.294406 0.362665
v -0.601232 0.280581 0.401731
v -0.601232 0.294406 0.401731
v -0.603089 0.294406 0.249808
v -0.668053 0.280581 0.276717
v -0.668053 0.294406 0.276717
v -0.640236 0.294406 0.127351
v -0.709202 0.280581 0.141069
v -0.709202 0.294406 0.141069
v -0.652779 0.294406 -0.000000
v -0.723096 0.280581 0.000000
v -0.723096 0.294406 0.000000
v -0.640236 0.294406 -0.127351
v -0.709202 0.280581 -0.141069
v -0.709202 0.294406 -0.141069
v -0.603089 0.294406 -0.249808
v -0.668053 0.280581 -0.276717
v -0.668053 0.294406 -0.276717
v -0.542766 0.294406 -0.362665
v -0.601232 0.280581 -0.401731
v -0.601232 0.294406 -0.401731
v -0.461584 0.294406 -0.461584
v -0.511306 0.280581 -0.511306
v -0.511306 0.294406 -0.511306
v -0.362665 0.294406 -0.542766
v -0.401731 0.280581 -0.601232
v -0.401731 0.294406 -0.601232
v -0.249808 0.294406 -0.603089
v -0.276717 0.280581 -0.668053
v -0.276717 0.294406 -0.668053
v -0.127351 0.294406 -0.640236
v -0.141069 0.280581 -0.709202
v -0.141069 0.294406 -0.709202
vn 0.9569 -0.0000 -0.2903
vn 0.2903 -0.0000 0.9569
vn -0.6344 -0.0000 0.7730
vn -0.7730 -0.0000 -0.6344
vn 0.6344 -0.0000 -0.7730
vn 0.7730 -0.0000 0.6344
vn -0.0980 -0.0000 0.9952
vn -0.9952 -0.0000 -0.0980
vn 0.0980 -0.0000 -0.9952
vn 0.9952 -0.0000 0.0980
vn -0.8819 -0.0000 0.4714
vn -0.4714 -0.0000 -0.8819
vn 0.8819 -0.0000 -0.4714
vn 0.4714 -0.0000 0.8819
vn -0.4714 -0.0000 0.8819
vn -0.8819 -0.0000 -0.4714
vn 0.4714 -0.0000 -0.8819
vn -0.0000 1.0000 -0.0000
vn -0.9952 -0.0000 0.0980
vn -0.0980 -0.0000 -0.9952
vn 0.9952 -0.0000 -0.0980
vn -0.7730 -0.0000 0.6344
vn -0.6344 -0.0000 -0.7730
vn 0.7730 -0.0000 -0.6344
vn 0.6344 -0.0000 0.7730
vn 0.0980 -0.0000 0.9952
vn -0.2903 -0.0000 0.9569
vn -0.9569 -0.0000 -0.2903
vn 0.2903 -0.0000 -0.9569
vn 0.9569 -0.0000 0.2903
vn -0.9569 -0.0000 0.2903
vn -0.2903 -0.0000 -0.9569
vn -0.0000 -1.0000 -0.0000
vn 0.8819 -0.0000 0.4714
vt 0.037502 0.207731
vt 0.049831 0.167087
vt 0.207732 0.462498
vt 0.167087 0.450169
vt 0.403203 0.403203
vt 0.370371 0.430147
vt 0.403203 0.096797
vt 0.430147 0.129629
vt 0.096797 0.096797
vt 0.129629 0.069853
vt 0.096797 0.403203
vt 0.069853 0.370371
vt 0.292269 0.462498
vt 0.250000 0.466661
vt 0.462498 0.207731
vt 0.466661 0.250000
vt 0.207732 0.037502
vt 0.250000 0.033339
vt 0.037502 0.292269
vt 0.033339 0.250000
vt 0.450169 0.332913
vt 0.430147 0.370371
vt 0.332913 0.049831
vt 0.370371 0.069853
vt 0.069853 0.129629
vt 0.129629 0.430147
vt 0.332913 0.450169
vt 0.450169 0.167087
vt 0.167087 0.049831
vt 0.049831 0.332913
vt 0.292269 0.037502
vt 0.462498 0.292269
vt 0.750000 0.490000
vt 0.796822 0.485388
vt 0.841844 0.471731
vt 0.883337 0.449553
vt 0.919706 0.419706
vt 0.949553 0.383337
vt 0.971731 0.341844
vt 0.985388 0.296822
vt 0.990000 0.250000
vt 0.985388 0.203178
vt 0.971731 0.158156
vt 0.949553 0.116663
vt 0.919706 0.080294
vt 0.883337 0.050447
vt 0.841844 0.028269
vt 0.796822 0.014612
vt 0.750000 0.010000
vt 0.703178 0.014612
vt 0.658156 0.028269
vt 0.616663 0.050447
vt 0.580294 0.080294
vt 0.550447 0.116663
vt 0.528269 0.158156
vt 0.514612 0.203178
vt 0.510000 0.250000
vt 0.514612 0.296822
vt 0.528269 0.341844
vt 0.550447 0.383337
vt 0.580294 0.419706
vt 0.616663 0.449553
vt 0.658156 0.471731
vt 0.703178 0.485388
vt 0.968750 0.975806
vt 1.000000 0.975806
vt 1.000000 1.000000
vt 0.968750 1.000000
vt 0.296822 0.485388
vt 0.250000 0.490000
vt 0.937500 0.975806
vt 0.937500 1.000000
vt 0.341844 0.471731
vt 0.906250 0.975806
vt 0.906250 1.000000
vt 0.383337 0.449553
vt 0.875000 0.975806
vt 0.875000 1.000000
vt 0.419706 0.419706
vt 0.843750 0.975806
vt 0.843750 1.000000
vt 0.449553 0.383337
vt 0.812500 0.975806
vt 0.812500 1.000000
vt 0.471731 0.341844
vt 0.781250 0.975806
vt 0.781250 1.000000
vt 0.485388 0.296822
vt 0.750000 0.975806
vt 0.750000 1.000000
vt 0.490000 0.250000
vt 0.718750 0.975806
vt 0.718750 1.000000
vt 0.485389 0.203178
vt 0.687500 0.975806
vt 0.687500 1.000000
vt 0.471731 0.158156
vt 0.656250 0.975806
vt 0.656250 1.000000
vt 0.449553 0.116663
vt 0.625000 0.975806
vt 0.625000 1.000000
vt 0.419706 0.080294
vt 0.593750 0.975806
vt 0.593750 1.000000
vt 0.383337 0.050447
vt 0.562500 0.975806
vt 0.562500 1.000000
vt 0.341844 0.028269
vt 0.531250 0.975806
vt 0.531250 1.000000
vt 0.296822 0.014612
vt 0.500000 0.975806
vt 0.500000 1.000000
vt 0.250000 0.010000
vt 0.468750 0.975806
vt 0.468750 1.000000
vt 0.203178 0.014612
vt 0.437500 0.975806
vt 0.437500 1.000000
vt 0.158156 0.028269
vt 0.406250 0.975806
vt 0.406250 1.000000
vt 0.116663 0.050447
vt 0.375000 0.975806
vt 0.375000 1.000000
vt 0.080294 0.080294
vt 0.343750 0.975806
vt 0.343750 1.000000
vt 0.050447 0.116663
vt 0.312500 0.975806
vt 0.312500 1.000000
vt 0.028269 0.158156
vt 0.281250 0.975806
vt 0.281250 1.000000
vt 0.014612 0.203178
vt 0.250000 0.975806
vt 0.250000 1.000000
vt 0.010000 0.250000
vt 0.218750 0.975806
vt 0.218750 1.000000
vt 0.014612 0.296822
vt 0.187500 0.975806
vt 0.187500 1.000000
vt 0.028269 0.341844
vt 0.156250 0.975806
vt 0.156250 1.000000
vt 0.050447 0.383337
vt 0.125000 0.975806
vt 0.125000 1.000000
vt 0.080294 0.419706
vt 0.093750 0.975806
vt 0.093750 1.000000
vt 0.116663 0.449553
vt 0.062500 0.975806
vt 0.062500 1.000000
vt 0.158156 0.471731
vt 0.031250 0.975806
vt 0.031250 1.000000
vt 0.203178 0.485388
vt 0.000000 0.975806
vt 0.000000 1.000000
vt 1.000000 0.500000
vt 0.968750 0.500000
vt 0.031250 0.500000
vt 0.000000 0.500000
vt 0.937500 0.500000
vt 0.906250 0.500000
vt 0.875000 0.500000
vt 0.843750 0.500000
vt 0.812500 0.500000
vt 0.781250 0.500000
vt 0.750000 0.500000
vt 0.718750 0.500000
vt 0.687500 0.500000
vt 0.656250 0.500000
vt 0.625000 0.500000
vt 0.593750 0.500000
vt 0.562500 0.500000
vt 0.531250 0.500000
vt 0.500000 0.500000
vt 0.468750 0.500000
vt 0.437500 0.500000
vt 0.406250 0.500000
vt 0.375000 0.500000
vt 0.343750 0.500000
vt 0.312500 0.500000
vt 0.281250 0.500000
vt 0.250000 0.500000
vt 0.218750 0.500000
vt 0.187500 0.500000
vt 0.156250 0.500000
vt 0.125000 0.500000
vt 0.093750 0.500000
vt 0.062500 0.500000
s 0
f 134/1/1 131/2/1 20/2/1 18/1/1
f 158/3/2 155/4/2 4/4/2 2/3/2
f 77/5/3 74/6/3 58/6/3 56/5/3
f 101/7/4 98/8/4 42/8/4 40/7/4
f 125/9/5 122/10/5 26/10/5 24/9/5
f 149/11/6 146/12/6 10/12/6 8/11/6
f 68/13/7 65/14/7 64/14/7 62/13/7
f 92/15/8 89/16/8 48/16/8 46/15/8
f 116/17/9 113/18/9 32/18/9 30/17/9
f 140/19/10 137/20/10 16/20/10 14/19/10
f 83/21/11 80/22/11 54/22/11 52/21/11
f 107/23/12 104/24/12 38/24/12 36/23/12
f 131/2/13 128/25/13 22/25/13 20/2/13
f 155/4/14 152/26/14 6/26/14 4/4/14
f 74/6/15 71/27/15 60/27/15 58/6/15
f 98/8/16 95/28/16 44/28/16 42/8/16
f 122/10/17 119/29/17 28/29/17 26/10/17
f 62/13/18 64/14/18 2/3/18 4/4/18 6/26/18 8/11/18 10/12/18 12/30/18 14/19/18 16/20/18 18/1/18 20/2/18 22/25/18 24/9/18 26/10/18 28/29/18 30/17/18 32/18/18 34/31/18 36/23/18 38/24/18 40/7/18 42/8/18 44/28/18 46/15/18 48/16/18 50/32/18 52/21/18 54/22/18 56/5/18 58/6/18 60/27/18
f 89/16/19 86/32/19 50/32/19 48/16/19
f 113/18/20 110/31/20 34/31/20 32/18/20
f 137/20/21 134/1/21 18/1/21 16/20/21
f 80/22/22 77/5/22 56/5/22 54/22/22
f 104/24/23 101/7/23 40/7/23 38/24/23
f 128/25/24 125/9/24 24/9/24 22/25/24
f 152/26/25 149/11/25 8/11/25 6/26/25
f 65/14/26 158/3/26 2/3/26 64/14/26
f 71/27/27 68/13/27 62/13/27 60/27/27
f 95/28/28 92/15/28 46/15/28 44/28/28
f 119/29/29 116/17/29 30/17/29 28/29/29
f 143/30/30 140/19/30 14/19/30 12/30/30
f 86/32/31 83/21/31 52/21/31 50/32/31
f 110/31/32 107/23/32 36/23/32 34/31/32
f 1/33/33 3/34/33 5/35/33 7/36/33 9/37/33 11/38/33 13/39/33 15/40/33 17/41/33 19/42/33 21/43/33 23/44/33 25/45/33 27/46/33 29/47/33 31/48/33 33/49/33 35/50/33 37/51/33 39/52/33 41/53/33 43/54/33 45/55/33 47/56/33 49/57/33 51/58/33 53/59/33 55/60/33 57/61/33 59/62/33 61/63/33 63/64/33
f 69/65/9 66/66/9 67/67/9 70/68/9
f 70/69/18 67/70/18 65/14/18 68/13/18
f 72/71/29 69/65/29 70/68/29 73/72/29
f 73/73/18 70/69/18 68/13/18 71/27/18
f 75/74/17 72/71/17 73/72/17 76/75/17
f 76/76/18 73/73/18 71/27/18 74/6/18
f 78/77/5 75/74/5 76/75/5 79/78/5
f 79/79/18 76/76/18 74/6/18 77/5/18
f 81/80/24 78/77/24 79/78/24 82/81/24
f 82/82/18 79/79/18 77/5/18 80/22/18
f 84/83/13 81/80/13 82/81/13 85/84/13
f 85/85/18 82/82/18 80/22/18 83/21/18
f 87/86/1 84/83/1 85/84/1 88/87/1
f 88/88/18 85/85/18 83/21/18 86/32/18
f 90/89/21 87/86/21 88/87/21 91/90/21
f 91/91/18 88/88/18 86/32/18 89/16/18
f 93/92/10 90/89/10 91/90/10 94/93/10
f 94/94/18 91/91/18 89/16/18 92/15/18
f 96/95/30 93/92/30 94/93/30 97/96/30
f 97/97/18 94/94/18 92/15/18 95/28/18
f 99/98/34 96/95/34 97/96/34 100/99/34
f 100/100/18 97/97/18 95/28/18 98/8/18
f 102/101/6 99/98/6 100/99/6 103/102/6
f 103/103/18 100/100/18 98/8/18 101/7/18
f 105/104/25 102/101/25 103/102/25 106/105/25
f 106/106/18 103/103/18 101/7/18 104/24/18
f 108/107/14 105/104/14 106/105/14 109/108/14
f 109/109/18 106/106/18 104/24/18 107/23/18
f 111/110/2 108/107/2 109/108/2 112/111/2
f 112/112/18 109/109/18 107/23/18 110/31/18
f 114/113/26 111/110/26 112/111/26 115/114/26
f 115/115/18 112/112/18 110/31/18 113/18/18
f 117/116/7 114/113/7 115/114/7 118/117/7
f 118/118/18 115/115/18 113/18/18 116/17/18
f 120/119/27 117/116/27 118/117/27 121/120/27
f 121/121/18 118/118/18 116/17/18 119/29/18
f 123/122/15 120/119/15 121/120/15 124/123/15
f 124/124/18 121/121/18 119/29/18 122/10/18
f 126/125/3 123/122/3 124/123/3 127/126/3
f 127/127/18 124/124/18 122/10/18 125/9/18
f 129/128/22 126/125/22 127/126/22 130/129/22
f 130/130/18 127/127/18 125/9/18 128/25/18
f 132/131/11 129/128/11 130/129/11 133/132/11
f 133/133/18 130/130/18 128/25/18 131/2/18
f 135/134/31 132/131/31 133/132/31 136/135/31
f 136/136/18 133/133/18 131/2/18 134/1/18
f 138/137/19 135/134/19 136/135/19 139/138/19
f 139/139/18 136/136/18 134/1/18 137/20/18
f 141/140/8 138/137/8 139/138/8 142/141/8
f 142/142/18 139/139/18 137/20/18 140/19/18
f 144/143/28 141/140/28 142/141/28 145/144/28
f 145/145/18 142/142/18 140/19/18 143/30/18
f 147/146/16 144/143/16 145/144/16 148/147/16
f 148/148/18 145/145/18 143/30/18 146/12/18
f 150/149/4 147/146/4 148/147/4 151/150/4
f 151/151/18 148/148/18 146/12/18 149/11/18
f 153/152/23 150/149/23 151/150/23 154/153/23
f 154/154/18 151/151/18 149/11/18 152/26/18
f 156/155/12 153/152/12 154/153/12 157/156/12
f 157/157/18 154/154/18 152/26/18 155/4/18
f 159/158/32 156/155/32 157/156/32 160/159/32
f 160/160/18 157/157/18 155/4/18 158/3/18
f 66/161/20 159/158/20 160/159/20 67/162/20
f 67/70/18 160/160/18 158/3/18 65/14/18
f 146/12/34 143/30/34 12/30/34 10/12/34
f 1/163/9 66/66/9 69/65/9 3/164/9
f 63/165/20 159/158/20 66/161/20 1/166/20
f 3/164/29 69/65/29 72/71/29 5/167/29
f 5/167/17 72/71/17 75/74/17 7/168/17
f 7/168/5 75/74/5 78/77/5 9/169/5
f 9/169/24 78/77/24 81/80/24 11/170/24
f 11/170/13 81/80/13 84/83/13 13/171/13
f 13/171/1 84/83/1 87/86/1 15/172/1
f 15/172/21 87/86/21 90/89/21 17/173/21
f 17/173/10 90/89/10 93/92/10 19/174/10
f 19/174/30 93/92/30 96/95/30 21/175/30
f 21/175/34 96/95/34 99/98/34 23/176/34
f 23/176/6 99/98/6 102/101/6 25/177/6
f 25/177/25 102/101/25 105/104/25 27/178/25
f 27/178/14 105/104/14 108/107/14 29/179/14
f 29/179/2 108/107/2 111/110/2 31/180/2
f 31/180/26 111/110/26 114/113/26 33/181/26
f 33/181/7 114/113/7 117/116/7 35/182/7
f 35/182/27 117/116/27 120/119/27 37/183/27
f 37/183/15 120/119/15 123/122/15 39/184/15
f 39/184/3 123/122/3 126/125/3 41/185/3
f 41/185/22 126/125/22 129/128/22 43/186/22
f 43/186/11 129/128/11 132/131/11 45/187/11
f 45/187/31 132/131/31 135/134/31 47/188/31
f 47/188/19 135/134/19 138/137/19 49/189/19
f 49/189/8 138/137/8 141/140/8 51/190/8
f 51/190/28 141/140/28 144/143/28 53/191/28
f 53/191/16 144/143/16 147/146/16 55/192/16
f 55/192/4 147/146/4 150/149/4 57/193/4
f 57/193/23 150/149/23 153/152/23 59/194/23
f 59/194/12 153/152/12 156/155/12 61/195/12
f 61/195/32 156/155/32 159/158/32 63/165/32
o Cube
v -0.940000 -0.048984 0.940000
v -0.940000 -0.046045 1.000000
v -1.000000 -0.046045 0.940000
v -0.932779 0.001924 0.872633
v -0.872633 0.001924 0.932779
v -0.868591 -0.001008 0.868591
v -0.940000 -0.048984 -0.940000
v -1.000000 -0.046045 -0.940000
v -0.940000 -0.046045 -1.000000
v -0.932779 0.001924 -0.872633
v -0.868591 -0.001008 -0.868591
v -0.872633 0.001924 -0.932779
v 0.940000 -0.048984 0.940000
v 1.000000 -0.046045 0.940000
v 0.940000 -0.046045 1.000000
v 0.932779 0.001924 0.872633
v 0.868591 -0.001008 0.868591
v 0.872633 0.001924 0.932779
v 0.940000 -0.048984 -0.940000
v 0.940000 -0.046045 -1.000000
v 1.000000 -0.046045 -0.940000
v 0.872633 0.001924 -0.932779
v 0.868591 -0.001008 -0.868591
v 0.932779 0.001924 -0.872633
v -0.940000 0.046045 1.000000
v -0.935666 0.046052 0.995812
v -0.995812 0.046052 0.935666
v -1.000000 0.046045 0.940000
v -0.995812 0.046052 -0.935666
v -0.935666 0.046052 -0.995812
v -0.940000 0.046045 -1.000000
v -1.000000 0.046045 -0.940000
v 0.935666 0.046052 -0.995812
v 0.995812 0.046052 -0.935666
v 1.000000 0.046045 -0.940000
v 0.940000 0.046045 -1.000000
v 0.995812 0.046052 0.935666
v 0.935666 0.046052 0.995812
v 0.940000 0.046045 1.000000
v 1.000000 0.046045 0.940000
vn -0.0489 -0.9976 0.0489
vn 0.0429 0.9982 -0.0429
vn -0.0489 -0.9976 -0.0489
vn 0.0429 0.9982 0.0429
vn 0.0489 -0.9976 0.0489
vn -0.0429 0.9982 -0.0429
vn 0.0489 -0.9976 -0.0489
vn -0.0429 0.9982 0.0429
vn -0.0008 1.0000 0.0008
vn -0.0008 1.0000 -0.0008
vn 0.0008 1.0000 -0.0008
vn 0.0008 1.0000 0.0008
vn -0.0489 -0.9988 -0.0000
vn -0.7071 -0.0000 0.7071
vn -0.0017 1.0000 -0.0000
vn -0.7071 -0.0000 -0.7071
vn -0.0000 -0.9988 -0.0489
vn -0.0000 1.0000 -0.0017
vn 0.7071 -0.0000 -0.7071
vn 0.0489 -0.9988 -0.0000
vn 0.0017 1.0000 -0.0000
vn 0.7071 -0.0000 0.7071
vn -0.0000 -0.9988 0.0489
vn -0.0000 1.0000 0.0017
vn 0.0456 0.9990 -0.0000
vn -0.0000 0.9990 0.0456
vn -0.0456 0.9990 -0.0000
vn -0.0000 0.9990 -0.0456
vn 0.3137 0.8962 -0.3137
vn 0.3137 0.8962 0.3137
vn -0.3137 0.8962 0.3137
vn -0.3137 0.8962 -0.3137
vn -0.0000 -1.0000 -0.0000
vn -1.0000 -0.0000 -0.0000
vn -0.0000 -0.0000 1.0000
vn 0.5735 0.8192 -0.0000
vn -0.0000 1.0000 -0.0000
vn -0.0000 0.8192 -0.5735
vn -0.0000 -0.0000 -1.0000
vn -0.0000 0.8192 0.5735
vn 1.0000 -0.0000 -0.0000
vn -0.5735 0.8192 -0.0000
vt 0.132500 0.742500
vt 0.132500 0.750000
vt 0.125000 0.742500
vt 0.866597 0.734079
vt 0.859079 0.741597
vt 0.858574 0.733574
vt 0.132500 0.507500
vt 0.125000 0.507500
vt 0.132500 0.500000
vt 0.866597 0.515921
vt 0.858574 0.516426
vt 0.859079 0.508403
vt 0.367500 0.742500
vt 0.382494 0.742500
vt 0.381867 0.757184
vt 0.633403 0.734079
vt 0.641426 0.733574
vt 0.640921 0.741597
vt 0.367500 0.507500
vt 0.381867 0.492816
vt 0.382494 0.507500
vt 0.640921 0.508403
vt 0.641426 0.516426
vt 0.633403 0.515921
vt 0.617500 0.992500
vt 0.624542 0.991958
vt 0.617518 0.999476
vt 0.617500 1.000000
vt 0.874476 0.508042
vt 0.866960 0.500524
vt 0.874444 0.500556
vt 0.874478 0.507500
vt 0.633005 0.500484
vt 0.625524 0.508040
vt 0.617501 0.507499
vt 0.617502 0.492501
vt 0.625524 0.741960
vt 0.633005 0.749516
vt 0.617502 0.757499
vt 0.617501 0.742501
vt 0.382500 0.000000
vt 0.617500 0.000000
vt 0.617500 0.007500
vt 0.382500 0.007500
vt 0.625000 0.008042
vt 0.625000 0.241958
vt 0.617500 0.242500
vt 0.617500 0.257500
vt 0.382500 0.257500
vt 0.382500 0.242500
vt 0.625000 0.258042
vt 0.866958 0.749476
vt 0.874476 0.741958
vt 0.382500 0.992500
s 0
f 161/196/35 162/197/35 163/198/35
f 164/199/36 165/200/36 166/201/36
f 167/202/37 168/203/37 169/204/37
f 170/205/38 171/206/38 172/207/38
f 173/208/39 174/209/39 175/210/39
f 176/211/40 177/212/40 178/213/40
f 179/214/41 180/215/41 181/216/41
f 182/217/42 183/218/42 184/219/42
f 185/220/43 186/221/43 187/222/43 188/223/43
f 189/224/44 190/225/44 191/226/44 192/227/44
f 193/228/45 194/229/45 195/230/45 196/231/45
f 197/232/46 198/233/46 199/234/46 200/235/46
f 167/202/47 161/196/47 163/198/47 168/203/47
f 162/236/48 185/237/48 188/238/48 163/239/48
f 187/240/49 189/241/49 192/242/49 188/238/49
f 191/243/50 169/244/50 168/245/50 192/242/50
f 179/214/51 167/202/51 169/204/51 180/215/51
f 190/246/52 193/228/52 196/231/52 191/243/52
f 195/230/53 181/216/53 180/215/53 196/231/53
f 173/208/54 179/214/54 181/216/54 174/209/54
f 194/229/55 197/232/55 200/235/55 195/230/55
f 199/234/56 175/210/56 174/209/56 200/235/56
f 161/196/57 173/208/57 175/210/57 162/197/57
f 198/233/58 186/221/58 185/220/58 199/234/58
f 166/201/59 171/206/59 170/205/59 164/199/59
f 171/206/60 183/218/60 182/217/60 172/207/60
f 183/218/61 177/212/61 176/211/61 184/219/61
f 177/212/62 166/201/62 165/200/62 178/213/62
f 186/247/63 165/200/63 164/199/63 187/248/63
f 172/207/64 190/225/64 189/224/64 170/205/64
f 184/219/65 194/229/65 193/228/65 182/217/65
f 178/213/66 198/233/66 197/232/66 176/211/66
f 167/202/67 179/214/67 173/208/67 161/196/67
f 163/239/68 188/238/68 192/242/68 168/245/68
f 175/210/69 199/234/69 185/220/69 162/249/69
f 164/199/70 170/205/70 189/224/70 187/248/70
f 183/218/71 171/206/71 166/201/71 177/212/71
f 178/213/72 165/200/72 186/247/72 198/233/72
f 169/244/73 191/243/73 196/231/73 180/215/73
f 172/207/74 182/217/74 193/228/74 190/225/74
f 181/216/75 195/230/75 200/235/75 174/209/75
f 184/219/76 176/211/76 197/232/76 194/229/76
