# Blender 5.0.0
# www.blender.org
mtllib NES Part.mtl
o Cube
v 0.690609 0.159749 -2.034041
v 0.719734 0.165938 -2.065655
v 0.673557 0.165938 -2.222940
v 0.651263 0.159558 -2.128490
v 0.961551 -0.165938 -2.362018
v 0.961551 -0.159558 -2.456467
v 1.000000 -0.159558 -2.362018
v 0.651263 0.159558 2.128490
v 0.673557 0.165938 2.222940
v 0.719734 0.165938 2.065655
v 0.690609 0.159749 2.034041
v 1.000000 -0.159558 2.362018
v 0.961551 -0.159558 2.456467
v 0.961551 -0.165938 2.362018
v -0.699153 0.159731 -2.034041
v -0.659879 0.159558 -2.128490
v -0.682322 0.165938 -2.222940
v -0.728706 0.165938 -2.066353
v -1.000000 -0.159558 -2.362018
v -0.961551 -0.159558 -2.456467
v -0.961551 -0.165938 -2.362018
v -0.659879 0.159558 2.128490
v -0.699153 0.159731 2.034041
v -0.728706 0.165938 2.066353
v -0.682322 0.165938 2.222940
v -0.961551 -0.165938 2.362018
v -0.961551 -0.159558 2.456467
v -1.000000 -0.159558 2.362018
v 1.000000 0.159558 2.362018
v 1.000000 0.165938 2.456467
v 1.000000 0.165938 2.456467
v 0.961551 0.159558 2.456467
v -1.000000 0.159558 2.362018
v -0.961551 0.159558 2.456467
v -1.000000 0.165938 2.456467
v -1.000000 0.165938 2.456467
v 0.961551 0.159558 -2.456467
v 1.000000 0.165938 -2.456467
v 1.000000 0.165938 -2.456467
v 1.000000 0.159558 -2.362018
v -0.961551 0.159558 -2.456467
v -1.000000 0.159558 -2.362018
v -1.000000 0.165938 -2.456467
v -1.000000 0.165938 -2.456467
v 0.808708 0.165938 2.362018
v 1.000000 0.165938 2.456467
v 1.000000 0.165938 2.456467
v 0.961551 0.165938 2.314499
v -0.813669 0.165938 2.362018
v -0.961551 0.165938 2.312905
v -1.000000 0.165938 2.456467
v -1.000000 0.165938 2.456467
v 0.961551 0.165938 -2.314499
v 1.000000 0.165938 -2.456467
v 1.000000 0.165938 -2.456467
v 0.808707 0.165938 -2.362018
v -0.961551 0.165938 -2.312905
v -0.813669 0.165938 -2.362018
v -1.000000 0.165938 -2.456467
v -1.000000 0.165938 -2.456467
v 0.817242 0.049366 2.128490
v 0.857161 0.049176 2.034041
v 0.828035 0.042986 2.034041
v -0.817818 0.049366 2.128490
v -0.828035 0.042986 2.034041
v -0.857588 0.049193 2.034041
v 0.857161 0.049176 -2.034041
v 0.817242 0.049366 -2.128490
v 0.828035 0.042986 -2.034041
v -0.857588 0.049193 -2.034041
v -0.828035 0.042986 -2.034041
v -0.817818 0.049366 -2.128490
vn -0.1331 0.9901 0.0445
vn 0.1633 -0.9843 -0.0665
vn -0.1331 0.9901 -0.0445
vn 0.1633 -0.9843 0.0665
vn 0.1318 0.9903 0.0443
vn -0.1633 -0.9843 -0.0665
vn 0.1318 0.9903 -0.0443
vn -0.1633 -0.9843 0.0665
vn -0.0000 1.0000 -0.0000
vn -0.2070 0.9742 -0.0895
vn 0.2048 0.9749 -0.0880
vn -0.2070 0.9742 0.0895
vn 0.2048 0.9749 0.0880
vn -0.1637 -0.9865 -0.0000
vn -0.0000 -0.9977 -0.0674
vn 0.9262 -0.0000 -0.3770
vn -0.9262 -0.0000 0.3770
vn 0.9262 -0.0000 0.3770
vn -0.9262 -0.0000 -0.3770
vn -0.0000 -0.0000 1.0000
vn 1.0000 -0.0000 -0.0000
vn -0.0000 -0.9977 0.0674
vn -1.0000 -0.0000 -0.0000
vn -0.0000 -0.0000 -1.0000
vn 0.1637 -0.9865 -0.0000
vn -0.0000 0.9977 -0.0674
vn -0.2079 0.9782 -0.0000
vn 0.2055 0.9786 -0.0000
vn -0.0000 0.9977 0.0674
vn 0.5565 -0.7976 0.2328
vn -0.5388 -0.8115 0.2261
vn -0.5388 -0.8115 -0.2261
vn 0.5565 -0.7976 -0.2328
vn -0.5531 -0.8331 -0.0000
vn -0.0000 -1.0000 -0.0000
vn 0.5722 -0.8201 -0.0000
vt 0.641690 0.521496
vt 0.639676 0.519887
vt 0.649814 0.511883
vt 0.647510 0.516689
vt 0.370194 0.504806
vt 0.375000 0.497597
vt 0.378605 0.504806
vt 0.647509 0.733311
vt 0.649814 0.738117
vt 0.639676 0.730113
vt 0.641689 0.728504
vt 0.378605 0.745194
vt 0.375000 0.752403
vt 0.370194 0.745194
vt 0.858311 0.521496
vt 0.852501 0.516689
vt 0.850482 0.511883
vt 0.860382 0.519851
vt 0.125000 0.504806
vt 0.129806 0.500000
vt 0.129806 0.504806
vt 0.852501 0.733311
vt 0.858311 0.728504
vt 0.860382 0.730149
vt 0.850482 0.738117
vt 0.129806 0.745194
vt 0.129806 0.750000
vt 0.125000 0.745194
vt 0.620194 0.745194
vt 0.625000 0.750000
vt 0.620194 0.753605
vt 0.620194 0.004806
vt 0.620194 0.000000
vt 0.625000 0.000000
vt 0.620194 0.495194
vt 0.625000 0.500000
vt 0.620194 0.503605
vt 0.620194 0.253605
vt 0.620194 0.245194
vt 0.625000 0.250000
vt 0.642343 0.745194
vt 0.627013 0.742776
vt 0.857952 0.745194
vt 0.872928 0.742695
vt 0.875000 0.750000
vt 0.627013 0.507224
vt 0.642343 0.504806
vt 0.872928 0.507305
vt 0.857952 0.504806
vt 0.875000 0.500000
vt 0.646858 0.733311
vt 0.641689 0.728504
vt 0.646496 0.728504
vt 0.853153 0.733311
vt 0.853504 0.728504
vt 0.646858 0.516690
vt 0.646496 0.521496
vt 0.858311 0.521496
vt 0.853504 0.521496
vt 0.853153 0.516689
vt 0.379806 0.000000
vt 0.379806 0.004806
vt 0.379806 0.254806
vt 0.379806 0.245194
vt 0.625000 1.000000
vt 0.620194 0.995194
vt 0.379806 0.995194
s 0
usemtl Material
f 1/1/1 2/2/1 3/3/1 4/4/1
f 5/5/2 6/6/2 7/7/2
f 8/8/3 9/9/3 10/10/3 11/11/3
f 12/12/4 13/13/4 14/14/4
f 15/15/5 16/16/5 17/17/5 18/18/5
f 19/19/6 20/20/6 21/21/6
f 22/22/7 23/23/7 24/24/7 25/25/7
f 26/26/8 27/27/8 28/28/8
f 29/29/4 30/30/4 31/30/4 32/31/4
f 33/32/8 34/33/8 35/34/8 36/34/8
f 37/35/2 38/36/2 39/36/2 40/37/2
f 41/38/6 42/39/6 43/40/6 44/40/6
f 45/41/9 46/30/9 47/30/9 48/42/9
f 49/43/9 50/44/9 51/45/9 52/45/9
f 53/46/9 54/36/9 55/36/9 56/47/9
f 57/48/9 58/49/9 59/50/9 60/50/9
f 61/51/10 62/52/10 63/53/10
f 64/54/11 65/55/11 66/23/11
f 67/1/12 68/56/12 69/57/12
f 70/58/13 71/59/13 72/60/13
f 21/21/14 26/26/14 28/28/14 19/19/14
f 5/5/15 21/21/15 20/20/15 6/6/15
f 40/37/16 7/7/16 6/6/16 37/35/16
f 27/61/17 34/33/17 33/32/17 28/62/17
f 32/31/18 13/13/18 12/12/18 29/29/18
f 41/38/19 20/63/19 19/64/19 42/39/19
f 31/30/20 35/65/20 34/66/20 32/31/20
f 39/36/21 30/30/21 29/29/21 40/37/21
f 26/26/22 14/14/22 13/13/22 27/27/22
f 36/34/23 43/40/23 42/39/23 33/32/23
f 44/40/24 38/36/24 37/35/24 41/38/24
f 14/14/25 5/5/25 7/7/25 12/12/25
f 45/41/9 49/43/9 52/45/9 46/30/9
f 53/46/9 48/42/9 47/30/9 54/36/9
f 50/44/9 57/48/9 60/50/9 51/45/9
f 58/49/9 56/47/9 55/36/9 59/50/9
f 30/30/9 47/30/9 46/30/9 31/30/9
f 51/45/9 36/45/9 35/45/9 52/45/9
f 38/36/9 55/36/9 54/36/9 39/36/9
f 59/50/9 44/50/9 43/50/9 60/50/9
f 8/8/26 22/22/26 25/25/26 9/9/26
f 1/1/27 11/11/27 10/10/27 2/2/27
f 23/23/28 15/15/28 18/18/28 24/24/28
f 16/16/29 4/4/29 3/3/29 17/17/29
f 48/42/9 10/10/9 9/9/9 45/41/9
f 24/24/9 50/44/9 49/43/9 25/25/9
f 56/47/9 3/3/9 2/2/9 53/46/9
f 17/17/9 58/49/9 57/48/9 18/18/9
f 63/53/26 65/55/26 64/54/26 61/51/26
f 69/57/27 63/53/27 62/52/27 67/1/27
f 65/55/28 71/59/28 70/58/28 66/23/28
f 71/59/29 69/57/29 68/56/29 72/60/29
f 15/15/30 70/58/30 72/60/30 16/16/30
f 67/1/31 1/1/31 4/4/31 68/56/31
f 61/51/32 8/8/32 11/11/32 62/52/32
f 22/22/33 64/54/33 66/23/33 23/23/33
f 11/11/34 1/1/34 67/1/34 62/52/34
f 2/2/9 10/10/9 48/42/9 53/46/9
f 4/4/20 16/16/20 72/60/20 68/56/20
f 17/17/9 3/3/9 56/47/9 58/49/9
f 20/63/24 41/38/24 37/35/24 6/6/24
f 7/7/21 40/37/21 29/29/21 12/12/21
f 21/21/35 5/5/35 14/14/35 26/26/35
f 22/22/24 8/8/24 61/51/24 64/54/24
f 9/9/9 25/25/9 49/43/9 45/41/9
f 13/13/20 32/31/20 34/66/20 27/67/20
f 15/15/36 23/23/36 66/23/36 70/58/36
f 24/24/9 18/18/9 57/48/9 50/44/9
f 28/62/23 33/32/23 42/39/23 19/64/23
f 54/36/9 47/30/9 30/30/9 39/36/9
f 46/30/9 52/45/9 35/45/9 31/30/9
f 51/45/9 60/50/9 43/50/9 36/45/9
f 59/50/9 55/36/9 38/36/9 44/50/9
f 69/57/9 71/59/9 65/55/9 63/53/9
